<svg width="3815" height="518" viewBox="0 0 3815 518" fill="none" xmlns="http://www.w3.org/2000/svg">
<path d="M352.331 68.8619L136.231 451.339L6.10352e-05 451.339L216.085 68.8619H352.331Z" fill="#2F10E9"/>
<path d="M455.54 0.000244141H455.552L455.546 0.012207L591.786 0.000244141L439 269.639H303.118L455.54 0.000244141ZM269.661 328.832H269.673L269.667 328.844L405.461 328.832L298.828 517.032H163.286L269.661 328.832Z" fill="#2F10E9"/>
<path d="M749.225 68.8619L533.125 451.339L396.894 451.339L612.979 68.8619H749.225Z" fill="#2F10E9"/>
<path d="M1284.64 233.44H1104.18V45.0088H1044.75V477.673H1104.18V289.973H1284.64V477.673H1344.06V45.0088H1284.64V233.44ZM1849.93 93.5658C1843.4 86.3188 1828.18 71.0988 1818.76 62.4018C1804.27 50.0818 1789.77 45.0088 1769.48 45.0088H1562.93V477.673H1769.48C1793.4 477.673 1806.44 471.873 1824.56 455.206C1831.81 448.684 1847.03 432.739 1855 423.318C1867.32 409.548 1872.39 395.053 1872.39 374.761V147.921C1872.39 124.729 1867.32 111.684 1849.93 93.5658ZM1812.97 376.211C1812.97 382.011 1807.16 389.981 1794.85 402.301C1781.8 415.346 1774.56 421.144 1768.76 421.144H1622.36V102.263H1768.76C1774.56 102.263 1782.53 108.063 1794.85 120.381C1807.89 133.426 1812.97 140.673 1812.97 146.471V376.211ZM2539.39 477.673L2449.53 294.316C2458.23 292.142 2466.19 289.243 2474.17 283.445C2483.59 276.923 2503.88 257.355 2510.4 247.933C2519.1 234.888 2522.72 219.669 2522.72 204.449V137.05C2522.72 121.831 2519.1 106.612 2510.4 93.5658C2503.88 84.1438 2483.59 64.5768 2474.17 58.0538C2461.12 48.6328 2446.63 45.0088 2431.41 45.0088H2226.31V477.673H2285.73V296.49H2386.47L2472.72 477.673H2539.39ZM2424.88 102.263C2433.58 102.263 2439.38 105.163 2449.53 115.308C2459.67 126.179 2463.3 131.977 2463.3 139.949V201.549C2463.3 209.521 2460.4 215.319 2449.53 225.465C2439.38 236.336 2433.58 239.235 2424.88 239.235H2285.74V102.263H2424.88ZM3063.37 477.673L2916.25 45.0088H2840.15L2693.03 477.673H2756.08L2787.97 382.009H2969.15L3000.32 477.673H3063.37ZM2878.57 107.34L2950.32 325.479H2806.09L2878.57 107.34ZM3296.74 477.677V45.0088H3237.31V477.673L3296.74 477.677ZM3755.49 379.838L3586.63 45.0088H3515.6V477.673H3575.03V145.746L3744.62 477.673H3814.92V45.0088H3755.49L3755.49 379.838Z" fill="#2F10E9"/>
</svg>
